<?xml version="1.0" standalone="no"?><!DOCTYPE svg PUBLIC "-//W3C//DTD SVG 1.1//EN" "http://www.w3.org/Graphics/SVG/1.1/DTD/svg11.dtd"><svg t="1594303509784" class="icon" viewBox="0 0 1466 1024" version="1.1" xmlns="http://www.w3.org/2000/svg" p-id="3292" xmlns:xlink="http://www.w3.org/1999/xlink" width="286.328125" height="200"><defs><style type="text/css"></style></defs><path d="M0 512a61.097852 61.097852 0 0 1 61.097852-61.097852h1038.663485a61.097852 61.097852 0 0 1 0 122.195704H61.097852a61.097852 61.097852 0 0 1-61.097852-61.097852z" fill="#F24922" p-id="3293"></path><path d="M1099.761337 450.902148h-274.940335v122.195704H1099.761337a61.097852 61.097852 0 1 0 0-122.195704z" fill="#CC3B23" p-id="3294"></path><path d="M870.644391 993.451074V30.548926a30.548926 30.548926 0 0 1 50.711218-22.606205L1455.961814 488.782816a30.548926 30.548926 0 0 1 0 45.212411l-534.606205 481.451074a30.548926 30.548926 0 0 1-50.711218-21.995227z" fill="#FFA42C" p-id="3295"></path></svg>